<svg xmlns="http://www.w3.org/2000/svg" viewBox="2150 3750 1900 450" style="transform: scaleY(-1);">
  <g>
    <path fill="#000000" fill-rule="evenodd" d="M 3960,3936.81 V 3820.8 h -24.55 l -7.6,25.21 c -15.42,-18.79 -35.12,-28.46 -59.04,-28.46 -62.5,0 -88.61,47.05 -88.61,109 0,64.05 28.83,114.85 94.3,114.85 46.97,0 70.6,-33.36 83.71,-72.77 l -45.07,-8.42 c -10.46,23.53 -19.68,39.32 -38.89,39.32 -31.66,0 -43.32,-42.08 -43.32,-69.94 0,-29.23 9.79,-68.98 44.65,-68.98 21.67,0 35.77,17.55 35.77,37.85 h -42.37 v 38.35 H 3960"/>
    <path fill="#000000" fill-rule="evenodd" d="m 3758.72,3992.88 h -103.5 v -41.69 h 82.55 v -42.32 h -82.55 v -47.44 h 103.5 v -42.33 h -154.56 v 216.74 h 154.56 v -42.96"/>
    <path fill="#000000" fill-rule="evenodd" d="m 3458,3939.58 33.47,-0.57 c 18.7,-0.32 33.98,7.51 33.98,28.19 0,20.91 -15.22,28.43 -34.15,28.76 l -33.3,0.57 z m 0.48,-39.89 v -80.59 l -52.72,-0.63 v 216.74 l 90.36,0.63 c 43.59,0.31 79.17,-20.29 79.17,-66.5 0,-50.25 -32,-69.65 -72.68,-69.65 h -44.13"/>
    <path fill="#000000" fill-rule="evenodd" d="m 3226.06,3819.1 -53.04,164.86 V 3819.1 h -42.86 v 216.74 h 76.86 l 36.37,-124.03 41.37,124.03 h 79.8 V 3819.1 h -50.68 v 165.42 l -52.33,-165.42 h -35.49"/>
    <path fill="#000000" fill-rule="evenodd" d="m 2863.68,4045.41 h -132.36 v -63.03 h 104.78 v -52.88 h -104.78 v -110.41 h -68.72 v 282.16 h 201.08 v -55.84"/>
    <path fill="#000000" fill-rule="evenodd" d="m 3109,4045.41 h -132.36 v -63.03 h 104.78 v -52.88 h -104.78 v -110.41 h -68.71 v 282.16 H 3109 v -55.84"/>
    <path fill="#008700" fill-rule="nonzero" d="m 2188.6,4121.38 c -34.4,0 -36.9,56.41 0.06,56.41 l 127.52,-0.21 c 28.11,0 34.84,-36.81 19.63,-49.52 L 2219.07,4012.3 v -41.91 l 211.55,210.84 h 135.47 c 30.7,0 41.83,-37.93 22.45,-54.66 -108.99,-108.62 -217.83,-217.1 -326.81,-325.71 h 46.1 l 245.8,244.97 c 13.15,13.11 46.33,1.38 46.33,-26 v -133.74 l -88.28,-88.61 h 58.49 c 34.4,0 36.9,-58.13 -0.06,-58.13 l -127.52,0.21 c -28.11,0 -34.85,37.39 -19.63,50.1 l 118.41,120.33 v 39.62 l -213.83,-210.84 h -135.47 c -30.7,0 -41.83,37.93 -22.45,54.66 108.96,108.6 217.85,217.12 326.81,325.71 h -46.1 l -245.8,-244.97 c -13.15,-13.1 -44.05,-1.38 -44.05,26 v 135.46 l 86.04,85.75 h -57.92"/>
  </g>
</svg>